<?xml version="1.0" encoding="UTF-8" standalone="no"?>
<!-- Created with Inkscape (http://www.inkscape.org/) -->

<svg
   version="1.1"
   id="svg839"
   width="1600"
   height="1600"
   viewBox="0 0 1600 1600"
   sodipodi:docname="basketball-player-vector-pdv.svg"
   inkscape:version="1.2 (dc2aedaf03, 2022-05-15)"
   xmlns:inkscape="http://www.inkscape.org/namespaces/inkscape"
   xmlns:sodipodi="http://sodipodi.sourceforge.net/DTD/sodipodi-0.dtd"
   xmlns="http://www.w3.org/2000/svg"
   xmlns:svg="http://www.w3.org/2000/svg">
  <defs
     id="defs843">
    <clipPath
       clipPathUnits="userSpaceOnUse"
       id="clipPath855">
      <path
         d="M 0,1200 H 1200 V 0 H 0 Z"
         id="path853" />
    </clipPath>
  </defs>
  <sodipodi:namedview
     id="namedview841"
     pagecolor="#ffffff"
     bordercolor="#000000"
     borderopacity="0.25"
     inkscape:showpageshadow="2"
     inkscape:pageopacity="0.0"
     inkscape:pagecheckerboard="0"
     inkscape:deskcolor="#d1d1d1"
     showgrid="false"
     inkscape:zoom="0.523125"
     inkscape:cx="800"
     inkscape:cy="800.95579"
     inkscape:window-width="1920"
     inkscape:window-height="1017"
     inkscape:window-x="-8"
     inkscape:window-y="-8"
     inkscape:window-maximized="1"
     inkscape:current-layer="g847">
    <inkscape:page
       x="0"
       y="0"
       id="page845"
       width="1600"
       height="1600" />
  </sodipodi:namedview>
  <g
     id="g847"
     inkscape:groupmode="layer"
     inkscape:label="Page 1"
     transform="matrix(1.3333333,0,0,-1.3333333,0,1600)">
    <g
       id="g849">
      <g
         id="g851"
         clip-path="url(#clipPath855)">
        <g
           id="g857"
           transform="translate(524.3105,726.6138)">
          <path
             d="m 0,0 c 1.312,8.942 2.565,17.917 4.14,26.849 1.606,8.911 3.433,17.857 6.631,26.334 L 5.908,26.394 C 4.947,17.492 4.298,8.551 3.588,-0.404 3.196,-5.408 2.775,-10.417 2.278,-15.43 6.66,-3.573 11.172,8.516 15.754,19.659 c 2.212,5.375 3.817,10.4 5.235,14.832 3.026,9.47 5.494,17.16 11.949,21.581 -0.322,0.215 -0.637,0.434 -0.944,0.653 -2.054,1.534 -3.757,3.242 -5.395,4.991 -3.246,3.512 -6.142,7.228 -8.863,11.059 L 37.09,59.42 c 0.167,0.002 0.289,0.014 0.363,0.046 l -0.106,0.09 c 0.036,0.029 0.244,0.017 0.207,-0.055 -0.015,-0.011 -0.07,-0.023 -0.101,-0.035 l 0.93,-0.777 c 0.029,0.011 0.053,0.022 0.081,0.031 0.975,1.135 2.269,1.76 3.843,1.856 5.26,0.293 12.317,-5.658 14.22,-7.369 h 26.131 l 10.367,7.461 -4.208,11.458 -3.635,5.222 C 75.502,74.889 65.371,73.57 54.936,73.57 c -58.139,0 -106.943,40.61 -119.619,94.942 l -3.038,-5.635 6.842,-30.791 4.112,-22.599 18.499,-19.867 7.447,-9.887 15.874,11.255 -13.695,-14.149 0.291,-0.381 -0.457,-0.795 C -36.466,62.261 -45.26,55.408 -70.479,37.696 c -6.287,-4.42 -12.236,-9.047 -17.822,-13.832 2.325,1.341 4.674,2.625 7.038,3.868 5.488,2.875 11.124,5.429 16.82,7.809 5.704,2.361 11.468,4.572 17.331,6.487 -5.761,-2.196 -11.402,-4.684 -16.964,-7.312 -5.553,-2.647 -11.027,-5.454 -16.316,-8.566 -5.277,-3.115 -10.48,-6.376 -15.258,-10.149 -4.776,-3.746 -13.2,-12.314 -13.2,-12.314 -17.37,-19.716 -28.557,-40.818 -31.519,-60.564 l -0.116,-0.388 c -7.221,-15.338 -11.458,-73.734 -11.458,-78.683 0,-1.002 -0.452,-2.988 -1.475,-7.386 -3.659,-15.764 -12.163,-52.409 -4.862,-85.161 l 18.486,-32.023 4.198,-6.922 2.152,-3.4 c 0.571,-0.998 0.704,-1.635 0.949,-2.358 0.188,-0.685 0.388,-1.377 0.536,-2.047 1.256,-5.388 2.129,-10.72 3.02,-16.082 2.999,-18.722 5.52,-37.482 7.939,-56.257 21.475,12.179 41.136,33.537 56.725,60.543 -1.901,8.617 -3.181,17.361 -3.844,26.222 -0.45,5.799 -0.54,11.606 0.166,17.699 0.173,1.526 0.504,3.086 0.958,4.696 0.428,1.566 1.444,3.572 2.129,4.652 1.51,2.539 3.1,4.955 4.677,7.359 6.388,9.532 12.901,18.664 18.369,28.461 4.799,8.545 8.842,17.502 11.771,27.061 -0.497,17.433 -4.247,31.691 -8.014,41.807 -0.445,0.455 -0.893,0.91 -1.352,1.353 -1.322,1.288 -2.668,2.543 -4.046,3.771 -2.744,2.47 -5.52,4.909 -8.314,7.339 -5.535,4.918 -11.082,9.872 -16.257,15.319 -2.595,2.718 -5.096,5.563 -7.347,8.698 -1.129,1.568 -2.187,3.216 -3.139,4.979 -0.462,0.896 -0.907,1.812 -1.285,2.787 -0.374,0.95 -0.702,2.095 -0.932,2.859 -1.902,6.794 -5.04,13.247 -9.845,18.072 -2.366,2.42 -5.114,4.448 -8.148,5.844 -2.971,1.38 -6.442,2.231 -9.306,1.954 -0.332,-0.034 -0.667,-0.086 -0.862,-0.152 -0.153,-0.041 -0.116,-0.026 -0.193,-0.063 -0.06,-0.024 -0.148,-0.078 -0.247,-0.151 -0.402,-0.285 -0.926,-0.86 -1.404,-1.488 -0.97,-1.282 -1.869,-2.829 -2.741,-4.399 -1.736,-3.167 -3.372,-6.512 -5.35,-9.785 -0.993,-1.641 -2.039,-3.282 -3.42,-4.851 -0.704,-0.779 -1.488,-1.56 -2.564,-2.207 -1.037,-0.652 -2.685,-1.092 -4.146,-0.617 -1.428,0.443 -2.37,1.365 -3.037,2.178 -0.72,0.822 -1.256,1.74 -1.727,2.657 -0.899,1.857 -1.43,3.778 -1.769,5.686 -0.603,3.834 -0.572,7.625 -0.25,11.356 0.337,3.732 0.961,7.413 1.88,11.011 -0.331,-3.693 -0.43,-7.392 -0.328,-11.055 0.131,-3.654 0.454,-7.312 1.386,-10.726 0.459,-1.697 1.066,-3.332 1.906,-4.745 0.433,-0.689 0.895,-1.348 1.448,-1.873 0.532,-0.575 1.079,-0.893 1.446,-0.945 0.344,-0.046 0.633,0.038 1.152,0.366 0.49,0.343 1.024,0.89 1.516,1.519 0.991,1.272 1.87,2.813 2.696,4.39 1.636,3.179 3.108,6.558 4.826,9.934 0.866,1.693 1.755,3.397 2.952,5.113 0.619,0.855 1.277,1.734 2.332,2.592 0.265,0.211 0.557,0.423 0.906,0.617 0.321,0.194 0.789,0.392 1.08,0.477 0.679,0.239 1.263,0.334 1.849,0.422 4.532,0.475 8.476,-0.65 12.22,-2.262 3.71,-1.664 7.034,-4.065 9.868,-6.899 5.611,-5.789 9.025,-13.147 10.983,-20.579 0.269,-1.015 0.431,-1.657 0.698,-2.439 0.263,-0.762 0.597,-1.524 0.956,-2.287 0.753,-1.521 1.637,-3.028 2.619,-4.499 1.98,-2.934 4.243,-5.769 6.575,-8.565 4.744,-5.536 9.84,-10.879 14.926,-16.259 2.512,-2.722 5.065,-5.416 7.502,-8.229 1.204,-1.396 2.405,-2.807 3.542,-4.265 -3.288,8.374 -6.418,13.525 -7.213,14.778 -5.365,8.425 3.545,23.675 22.166,37.952 3.317,2.539 7.522,11.007 12.217,22.389 l -0.261,0.108 c 3.463,7.84 5.646,16.536 7.449,25.277 C -2.667,-17.857 -1.308,-8.939 0,0"
             style="fill:#ecc19c;fill-opacity:1;fill-rule:nonzero;stroke:none"
             id="path859" />
        </g>
        <g
           id="g861"
           transform="translate(715.3145,851.1997)">
          <path
             d="m 0,0 c -0.141,-0.282 -0.25,-0.573 -0.401,-0.851 -0.992,-1.834 -2.161,-3.636 -3.765,-5.045 1.218,4.016 2.293,7.784 3.522,11.648 1.271,3.829 2.536,7.664 4.476,11.414 v 0.003 C 3.967,15.049 3.767,12.977 3.439,10.933 3.15,9.038 2.693,7.181 2.129,5.348 l 41.106,-38.946 z m 279.547,-202.971 c -1.991,17.261 -57.666,73.668 -84.233,88.654 -27.117,15.296 -128.705,87.76 -135.841,94.049 -2.959,2.607 -9.028,7.224 -16.052,12.573 C 22.528,8.209 6.469,20.768 5.482,25.704 1.568,53.084 -4.764,94.764 -6.221,97.681 c -1.275,2.543 -10.912,15.842 -18.676,26.384 7.478,-15.858 11.684,-33.558 11.684,-52.224 0,-25.396 -7.746,-49.014 -20.996,-68.62 0.541,0.166 1.085,0.314 1.634,0.448 2.313,0.569 4.718,0.737 7.044,0.584 2.347,-0.131 4.579,-0.87 6.644,-1.747 l -19.061,-5.554 c -1.341,-1.127 -2.635,-2.378 -3.609,-3.581 l -0.034,0.034 c -3.968,-4.771 -8.302,-9.23 -12.937,-13.354 -0.286,-0.41 -0.574,-0.825 -0.856,-1.233 -6.023,-8.687 -11.226,-16.19 -14.018,-18.769 -4.975,-4.589 -18.609,-10.155 -24.107,-12.286 2.588,-1.962 7.369,-5.365 11.657,-7.204 4.291,-1.834 23.768,2.657 51.041,11.748 l 20.897,18.987 c 0.676,0.917 1.328,1.84 1.87,2.779 0.777,1.237 1.28,2.505 1.556,3.54 l 2.67,-0.779 2.671,-0.776 c -0.801,-1.944 -1.816,-3.473 -2.915,-4.784 -0.192,-0.243 -0.4,-0.455 -0.597,-0.684 16.587,-14.364 33.115,-28.784 49.538,-43.33 8.666,-7.664 17.287,-15.381 25.85,-23.161 4.284,-3.886 8.527,-7.821 12.751,-11.77 3.41,-3.334 6.945,-6.558 10.139,-10.1 0.912,-0.952 1.602,-1.732 2.007,-2.289 l -43.492,37.717 c -3.025,2.487 -6.022,5.01 -9.056,7.485 -17.091,13.955 -34.29,27.785 -51.533,41.545 -2.074,-1.921 -4.248,-3.669 -6.454,-5.357 -2.556,-1.942 -5.191,-3.761 -7.903,-5.45 -1.356,-0.845 -2.728,-1.662 -4.144,-2.403 -0.214,-0.106 -0.431,-0.215 -0.646,-0.326 21.068,-3.808 68.908,-41.702 105.356,-72.847 19.821,-16.939 37.74,-39.779 53.549,-59.932 12.425,-15.834 23.362,-29.771 31.467,-35.615 4.878,-1.734 9.766,-3.45 14.663,-5.122 8.441,-2.875 16.909,-5.673 25.43,-8.216 4.26,-1.261 8.537,-2.473 12.824,-3.454 2.131,-0.48 4.306,-0.924 6.345,-1.083 0.496,-0.033 1.006,-0.046 1.376,0 0.462,0.058 1.066,0.166 1.591,0.255 l 3.269,0.602 c 4.353,0.865 8.692,1.884 12.963,3.124 2.135,0.626 4.253,1.309 6.315,2.134 1.03,0.415 2.048,0.86 3.015,1.402 0.931,0.562 1.96,1.136 2.459,2.156 -0.405,-1.073 -1.401,-1.769 -2.291,-2.425 -0.93,-0.642 -1.918,-1.192 -2.918,-1.709 -2.005,-1.032 -4.077,-1.923 -6.165,-2.757 -4.185,-1.658 -8.451,-3.096 -12.77,-4.389 l -3.26,-0.925 c -0.565,-0.151 -1.053,-0.293 -1.691,-0.434 -0.376,-0.076 -0.72,-0.117 -1.053,-0.14 -4.194,-10.466 -13.268,-21.726 -17.764,-31.775 -2.396,-5.316 -4.916,-10.584 -7.743,-15.691 -1.42,-2.549 -2.91,-5.062 -4.571,-7.465 -1.671,-2.379 -3.489,-4.738 -5.839,-6.467 2.199,1.909 3.791,4.364 5.253,6.84 1.446,2.496 2.716,5.094 3.916,7.717 2.384,5.262 4.457,10.664 6.404,16.105 3.706,10.446 6.972,21.09 9.904,31.743 -3.611,0.597 -7.186,1.282 -10.74,2.032 -8.801,1.878 -17.524,4.007 -26.223,6.216 -6.039,1.538 -12.055,3.136 -18.072,4.764 -14.966,-6.81 -38.918,-27.457 -57.45,-50.024 -4.21,-4.731 -8.926,-12.393 -12.452,-20.697 -6.766,-16.317 -9.059,-35.514 6.443,-39.241 26.426,-6.353 57.084,3.118 88.382,27.823 0,0 -20.877,-35.951 -91.331,-50.301 -4.811,-0.979 -8.521,-30.039 -11.077,-59.959 3.549,2.969 7.64,4.863 11.716,6.355 8.597,3.041 17.396,4.518 26.111,6.104 8.728,1.543 17.441,3.012 26.004,5.156 8.542,2.149 17.002,4.957 24.669,9.428 -7.457,-4.816 -15.853,-8.039 -24.349,-10.59 -8.518,-2.549 -17.215,-4.424 -25.847,-6.359 -8.608,-1.967 -17.289,-3.862 -25.279,-7.114 -5.849,-2.431 -8.707,-5.086 -11.492,-11.003 -0.291,-0.62 -1.422,-2.842 -2.883,-5.706 -2.921,-5.718 -7.169,-13.992 -8.751,-17.23 -6.287,-18.955 -14.093,-32.727 -18.227,-46.318 l 2.033,-10.413 10.004,-32.22 11.52,17.306 c 1.975,3.12 4.463,6.801 7.131,10.715 l 0.025,0.035 c 2.418,3.547 4.958,7.256 7.38,10.889 4.332,6.494 8.246,12.699 10.2,17.068 8.213,18.362 15.303,34.217 25.611,40.659 22.266,13.918 91.619,109.504 113.793,150.16 1.648,3.015 4.326,7.519 7.429,12.734 12.887,21.654 34.462,57.9 32.837,71.977"
             style="fill:#ecc19c;fill-opacity:1;fill-rule:nonzero;stroke:none"
             id="path863" />
        </g>
        <g
           id="g865"
           transform="translate(791.0039,512.084)">
          <path
             d="M 0,0 C -0.322,14.685 0.72,26.947 2.916,36.893 L 2.809,36.93 c -4.486,1.494 -9.13,2.162 -13.822,2.168 C -36.359,39.115 -63.18,19.744 -74.67,6.215 l 41.229,-132.777 c 24.599,41.847 31.775,84.695 31.775,84.695 C -0.939,-18.543 0,0 0,0"
             style="fill:#ecc19c;fill-opacity:1;fill-rule:nonzero;stroke:none"
             id="path867" />
        </g>
        <g
           id="g869"
           transform="translate(669.9229,497.332)">
          <path
             d="M 0,0 7.244,81.152 C 7.135,80.937 7.036,80.721 6.918,80.506 2.972,73.928 -2.582,68.965 -8.447,64.578 c -5.477,-3.98 -11.411,-7.381 -18.072,-9.51 -6.9,-9.25 -18.187,-29.607 -19.298,-32.201 -0.721,-1.685 -4.95,-2.736 -10.329,-3.049 0.099,-12.388 11.256,-30.263 11.256,-32.185 0,-2.318 -15.762,-0.928 -17.49,2.781 -1.727,3.709 -11.986,31.506 -14.395,33.483 h 0.002 c -7.328,7.156 -16.433,25.464 -21.573,36.611 -4.688,3.357 -9.15,6.953 -13.454,10.812 -2.808,2.53 -5.47,5.242 -7.92,8.184 -1.94,2.393 -3.803,4.945 -5.122,7.863 l -2.652,-59.23 -19.678,-5.284 c -0.245,-6.929 -0.258,-15.921 -0.09,-26.406 0.367,-6.263 0.764,-12.5 1.475,-18.668 1.405,-13.779 4.095,-27.371 9.47,-39.615 2.725,-6.096 6.122,-11.806 10.175,-16.969 4.072,-5.152 8.876,-9.681 14.204,-13.525 5.32,-3.859 11.096,-7.129 17.176,-9.844 6.089,-2.717 12.497,-4.805 19.004,-6.603 12.749,-3.348 26.136,-4.049 38.025,0.478 5.937,2.188 11.423,5.602 16.23,9.926 4.789,4.338 8.986,9.478 12.555,15.111 3.579,5.637 6.433,11.789 8.889,18.129 2.451,6.352 4.331,12.969 5.758,19.701 1.357,6.293 2.304,12.696 2.822,19.16 -1.087,8.317 -2.128,16.274 -3.102,23.719 z"
             style="fill:#ecc19c;fill-opacity:1;fill-rule:nonzero;stroke:none"
             id="path871" />
        </g>
        <g
           id="g873"
           transform="translate(470.1348,496.1973)">
          <path
             d="m 0,0 c -1.582,-2.352 -3.146,-4.701 -4.592,-7.049 -0.849,-1.332 -1.132,-1.887 -1.545,-3.053 -0.359,-1.128 -0.652,-2.363 -0.892,-3.662 -0.985,-5.216 -1.076,-10.886 -1.287,-16.494 -0.138,-7.64 -0.039,-15.344 0.038,-23.094 C 7.9,-24.254 19.396,11.004 23.527,48.238 22.132,41.963 20.014,35.811 17.388,29.947 12.66,19.271 6.341,9.418 0,0"
             style="fill:#ecc19c;fill-opacity:1;fill-rule:nonzero;stroke:none"
             id="path875" />
        </g>
        <g
           id="g877"
           transform="translate(388.9902,450.4785)">
          <path
             d="M 0,0 C -0.172,0.643 -0.374,1.244 -0.572,1.857 -0.763,2.412 -1.036,3.078 -1.15,3.25 l -2.334,3.365 -4.523,6.778 -13.067,20.052 c 0.243,-3.621 0.436,-7.634 0.643,-12.052 1.112,-23.633 2.786,-59.352 16.581,-100.512 l 0.064,-0.194 c 6.029,1.852 11.976,4.403 17.783,7.67 -3.224,18.702 -6.555,37.385 -10.35,55.946 C 2.538,-10.422 1.425,-5.101 0,0"
             style="fill:#ecc19c;fill-opacity:1;fill-rule:nonzero;stroke:none"
             id="path879" />
        </g>
        <g
           id="g881"
           transform="translate(702.6875,602.4897)">
          <path
             d="m 0,0 c 0,-4.173 -6.607,-6.259 -7.649,-4.664 -1.041,1.599 2.433,3.62 2.781,4.664 0.347,1.042 -10.431,8.575 -10.431,8.575 0,0 -1.739,2.901 2.434,7.148 4.175,4.251 0,12.092 0,12.092 0,0 -0.695,3.827 -0.348,6.956 0.348,3.129 12.169,3.129 12.169,3.129 0,0 0.696,-6.956 0.35,-8.185 -0.35,-1.23 -5.358,2.969 -5.358,2.969 0,0 -2.989,-3.129 -2.989,-4.869 C -9.041,26.078 -7.997,21.21 0,14.132 7.997,7.054 0,4.172 0,0 m -40.508,71.279 c -1.853,-1.855 -38.538,2.664 -39.927,4.986 -1.392,2.315 -1.856,16.92 -1.856,16.92 5.101,13.445 27.353,8.027 32.916,7.417 5.082,-0.554 10.534,-7.998 11.513,-8.231 0.052,0.043 0.129,0.068 0.168,0.118 -0.007,-0.121 -0.075,-0.14 -0.168,-0.118 -2.376,-2.024 -17.534,4.251 -17.284,2.437 0.256,-1.856 16.898,-6.955 17.362,-10.038 0.464,-3.087 -0.87,-11.634 -2.724,-13.491 M -73.715,9.04 l -9.992,2.781 -29.296,2.311 -5.217,-4.05 -5.751,0.696 c 0,0 9.924,10.084 14.79,11.474 4.868,1.392 29.209,0.001 29.209,0.001 0,0 14.951,-12.171 14.603,-13.213 -0.348,-1.043 -8.346,0 -8.346,0 m -5.561,-16.69 h -31.992 l -3.474,5.563 L -118.22,0 c 2.782,-0.696 33.38,0 36.857,0 3.476,0 2.087,-7.65 2.087,-7.65 m -59.574,80.669 c 0,0 -4.173,0 -6.491,5.097 -2.317,5.102 10.198,11.592 10.198,11.592 0,0 5.564,2.317 2.376,6.65 -3.186,4.33 -12.574,-6.65 -12.574,-6.65 0,0 0.695,10.432 7.997,11.126 7.303,0.695 29.904,4.522 34.771,0 0,0 1.663,-24.004 -3.361,-25.035 -14.195,-2.914 -32.916,-2.78 -32.916,-2.78 m 43.706,-24.572 c 1.727,0.462 6.826,2.782 6.826,2.782 0,0 1.855,0.461 4.637,0 2.782,-0.466 6.027,-1.856 6.027,-5.564 0,-3.709 -1.909,-5.564 -6.053,-6.026 -4.147,-0.464 -21.302,2.317 -21.302,2.317 h -4.634 l -5.099,5.565 5.33,5.445 7.102,1.043 c 0,0 5.439,-6.026 7.166,-5.562 m -67.93,-43.581 c 0,-1.042 -4.018,1.508 -4.444,3.709 -0.424,2.203 -5.292,8.115 -4.596,10.896 0.695,2.781 2.432,13.213 2.432,13.213 0,0 -2.22,4.764 -2.501,6.902 -0.278,2.138 0.069,6.079 0.069,6.079 0,0 7.302,-6.026 6.955,-7.765 -0.349,-1.738 -3.473,-15.25 -3.473,-15.25 0,0 5.212,-8.742 5.558,-10.481 0.345,-1.737 0,-6.259 0,-7.303 m 147.133,40.048 0.504,1.587 c 0.012,0.039 0.148,0.487 0.362,1.269 -0.055,10.652 -0.558,58.987 -5.092,65.581 -5.1,7.419 -26.426,28.281 -34.979,31.062 -8.552,2.781 -38.737,-6.027 -39.998,-6.027 -1.263,0 -25.627,5.563 -28.827,8.345 -3.195,2.782 -20.444,-10.201 -26.933,-19.471 -6.49,-9.273 -6.705,-62.307 -6.705,-62.307 l -3.243,-3.99 v 3.771 c -0.172,-3.755 -0.338,-7.392 -0.485,-10.784 l -0.105,-2.418 -2.037,1.311 c -0.038,0.022 -3.661,2.317 -6.596,1.363 -1.406,-0.457 -2.443,-1.595 -3.177,-3.482 -2.97,-7.637 2.487,-49.849 4.837,-53.282 1.127,-1.119 5.316,-2.045 8.611,-2.473 -0.102,1.706 -0.194,3.412 -0.293,5.126 -0.233,4.655 -0.415,9.306 -0.553,13.958 -0.145,4.652 -0.254,9.304 -0.309,13.957 -0.028,2.326 -0.048,4.652 -0.027,6.981 0.039,2.321 -0.021,4.667 0.345,6.965 -0.252,-2.308 -0.073,-4.641 0,-6.96 0.096,-2.321 0.23,-4.64 0.378,-6.96 0.127,-2.09 0.3,-4.178 0.451,-6.266 0.551,-4.918 1.083,-9.837 1.553,-14.762 0.368,-3.702 0.705,-7.408 0.995,-11.121 l 0.084,-1.183 0.133,-0.01 -0.052,-1.106 0.243,-3.279 c 0.002,-0.027 0.004,-0.06 0.006,-0.09 0.178,-1.23 0.374,-2.445 0.604,-3.634 l -0.172,-0.034 c 0.122,-0.451 0.267,-0.898 0.445,-1.34 1.291,-3.16 3.556,-6.031 5.996,-8.665 2.463,-2.643 5.203,-5.059 7.998,-7.409 2.32,-1.927 4.738,-3.763 7.19,-5.547 -0.223,0.518 73.842,-8.529 73.842,-8.529 5.868,1.822 11.551,4.932 16.781,8.502 5.603,3.906 10.867,8.608 14.518,14.088 1.574,2.555 2.54,6.004 3.367,9.318 0.796,3.373 1.427,6.83 1.983,10.304 2.09,13.942 3.191,28.128 4.131,42.313 0.363,-7.107 0.488,-14.229 0.386,-21.353 -0.095,-7.126 -0.399,-14.257 -1.106,-21.394 -0.316,-3.211 -0.726,-6.426 -1.316,-9.639 2.824,-0.975 16.39,-4.922 24.568,5.984 8.417,11.224 1.362,43.508 -0.015,49.369 z"
             style="fill:#ecc19c;fill-opacity:1;fill-rule:nonzero;stroke:none"
             id="path883" />
        </g>
        <g
           id="g885"
           transform="translate(687.9102,496.8164)">
          <path
             d="m 0,0 c 4.452,-34.027 24.967,-190.873 28.248,-217.662 10.938,3.308 21.864,7.289 32.714,12.023 -2.093,23.254 -9.093,98.315 -14.09,151.711 L 26.983,10.121 0.307,3.951 C 0.251,3.103 0.152,1.748 0,0"
             style="fill:#fbb040;fill-opacity:1;fill-rule:nonzero;stroke:none"
             id="path887" />
        </g>
        <g
           id="g889"
           transform="translate(676.0518,406.6797)">
          <path
             d="m 0,0 c -3.525,-6.459 -7.914,-12.598 -13.382,-17.842 -5.424,-5.263 -11.888,-9.66 -19.028,-12.594 -7.135,-2.966 -14.874,-4.296 -22.462,-4.388 -7.609,-0.065 -15.077,1.135 -22.256,2.939 -7.008,1.969 -13.963,4.278 -20.672,7.338 -6.66,3.152 -13.132,6.869 -19.021,11.465 -11.798,9.135 -21.099,21.73 -26.052,35.617 -0.337,0.92 -0.626,1.85 -0.937,2.774 l 0.006,-0.141 c 2.998,-67.191 8.274,-145.746 9.228,-159.729 48.664,-8.666 108.946,-11.593 169.285,5.459 C 32.808,-113.459 21.757,-28.555 12.582,41.689 12.569,41.572 12.563,41.457 12.552,41.342 10.86,27.15 7.108,12.939 0,0"
             style="fill:#fbb040;fill-opacity:1;fill-rule:nonzero;stroke:none"
             id="path891" />
        </g>
        <g
           id="g893"
           transform="translate(491.3926,459.377)">
          <path
             d="m 0,0 -16.297,-170.602 c 1.793,-0.584 3.606,-1.164 5.447,-1.74 15.395,-4.816 34.159,-9.853 55.285,-13.879 C 42.427,-156.799 29.919,30.416 34.043,67.58 L 19.578,70.162 C 15.964,45.807 9.286,21.984 0,0"
             style="fill:#fbb040;fill-opacity:1;fill-rule:nonzero;stroke:none"
             id="path895" />
        </g>
        <g
           id="g897"
           transform="translate(777.4209,305.5664)">
          <path
             d="M 0,0 -38.642,124.449 C -34.65,81.766 -28.029,10.824 -25.864,-13.207 -17.176,-9.307 -8.542,-4.922 0,0"
             style="fill:#fbb040;fill-opacity:1;fill-rule:nonzero;stroke:none"
             id="path899" />
        </g>
        <g
           id="g901"
           transform="translate(427.043,373.0977)">
          <path
             d="m 0,0 6.732,-68.781 c 10.299,-4.455 22.362,-9.17 35.903,-13.744 L 57.294,70.93 C 53.537,63.408 49.47,56.158 45.086,49.25 31.847,28.379 16.474,11.705 0,0"
             style="fill:#fbb040;fill-opacity:1;fill-rule:nonzero;stroke:none"
             id="path903" />
        </g>
        <g
           id="g905"
           transform="translate(393.7764,326.2715)">
          <path
             d="M 0,0 C 0.946,-2.098 13.274,-9.934 34.155,-19.371 L 28.024,43.287 C 18.323,37.105 8.285,32.666 -1.887,30.068 -2.48,20.072 -2.696,6.203 0,0"
             style="fill:#fbb040;fill-opacity:1;fill-rule:nonzero;stroke:none"
             id="path907" />
        </g>
        <g
           id="g909"
           transform="translate(513.3398,830.8364)">
          <path
             d="m 0,0 c -0.304,-0.037 -0.604,-0.072 -0.907,-0.107 0.024,-0.015 0.046,-0.038 0.07,-0.055 C -0.558,-0.115 -0.281,-0.048 0,0"
             style="fill:#fbb040;fill-opacity:1;fill-rule:nonzero;stroke:none"
             id="path911" />
        </g>
        <g
           id="g913"
           transform="translate(669.0498,967.8999)">
          <path
             d="m 0,0 c -2.91,-10.462 -7.239,-20.494 -12.452,-29.998 -1.004,-1.827 -2.063,-3.619 -3.124,-5.411 1.639,2.49 3.243,5.006 4.787,7.558 5.409,9.096 10.163,18.62 13.611,28.643 C 5.006,7.233 6.605,13.904 7.348,20.7 5.929,22.797 4.461,24.86 2.912,26.857 3.549,17.883 2.304,8.747 0,0"
             style="fill:#fbb040;fill-opacity:1;fill-rule:nonzero;stroke:none"
             id="path915" />
        </g>
        <g
           id="g917"
           transform="translate(611.0732,1022.5767)">
          <path
             d="m 0,0 c -9.38,-5.045 -18.263,-10.979 -26.777,-17.363 -8.468,-6.452 -16.616,-13.317 -24.252,-20.724 -7.671,-7.361 -14.942,-15.139 -21.634,-23.383 -6.763,-8.18 -13.003,-16.8 -18.48,-25.882 -5.564,-9.027 -10.327,-18.529 -14.374,-28.327 -7.558,-18.293 -11.467,-38.024 -11.663,-58.048 5.226,-6.381 11.138,-12.165 17.577,-17.32 7.749,1.564 15.331,3.771 22.671,6.579 9.947,3.746 19.497,8.461 28.652,13.811 9.128,5.406 17.951,11.323 26.309,17.853 8.4,6.47 16.432,13.424 24.006,20.849 7.648,7.344 14.8,15.204 21.455,23.453 6.704,8.214 12.797,16.913 18.279,25.973 5.41,9.097 10.163,18.62 13.609,28.646 2.914,8.588 4.791,17.583 4.973,26.744 C 48.731,-12.375 33.662,-0.453 16.354,7.378 15.729,7.155 15.093,6.963 14.476,6.729 9.503,4.825 4.663,2.578 0,0"
             style="fill:#fbb040;fill-opacity:1;fill-rule:nonzero;stroke:none"
             id="path919" />
        </g>
        <g
           id="g921"
           transform="translate(662.0156,937.9019)">
          <path
             d="m 0,0 c -10.452,-19.027 -24.136,-36.132 -39.608,-51.264 -15.574,-15.036 -32.966,-28.284 -52.08,-38.511 -9.535,-5.132 -19.547,-9.403 -29.882,-12.604 -8.946,-2.709 -18.163,-4.634 -27.444,-5.242 19.11,-14.795 42.881,-23.826 68.712,-24.472 63.536,1.323 114.825,53.383 114.825,117.232 0,23.597 -7.025,45.575 -19.07,63.991 -0.266,-6.444 -1.354,-12.887 -3,-19.134 C 9.542,19.536 5.214,9.504 0,0"
             style="fill:#fbb040;fill-opacity:1;fill-rule:nonzero;stroke:none"
             id="path923" />
        </g>
        <g
           id="g925"
           transform="translate(616.0332,1027.6382)">
          <path
             d="M 0,0 C 2.963,1.175 5.97,2.242 9.034,3.123 9.148,3.156 9.265,3.181 9.378,3.213 9.26,3.267 9.144,3.321 9.023,3.373 7.36,2.859 5.716,2.284 4.099,1.667 2.72,1.14 1.354,0.579 0,0"
             style="fill:#fbb040;fill-opacity:1;fill-rule:nonzero;stroke:none"
             id="path927" />
        </g>
        <g
           id="g929"
           transform="translate(467.3701,923.0405)">
          <path
             d="m 0,0 c 0,-24.274 7.43,-46.837 20.115,-65.568 -0.424,17.241 2.558,34.683 8.597,50.974 3.665,10.251 8.474,20.065 13.913,29.488 5.485,9.404 11.844,18.265 18.694,26.697 13.845,16.747 29.843,31.697 47.653,44.085 8.89,6.201 18.263,11.733 28.106,16.294 4.921,2.263 9.986,4.254 15.2,5.751 1.198,0.35 2.409,0.674 3.627,0.964 -12.799,5.204 -26.715,8.198 -41.281,8.54 C 51.18,115.794 0,63.779 0,0"
             style="fill:#fbb040;fill-opacity:1;fill-rule:nonzero;stroke:none"
             id="path931" />
        </g>
        <g
           id="g933"
           transform="translate(501.501,908.4468)">
          <path
             d="M 0,0 C 1.64,4.587 3.52,9.08 5.569,13.496 3.061,8.577 0.746,3.558 -1.364,-1.549 c -6.69,-16.19 -10.503,-33.506 -11.435,-51.151 1.482,-2.11 3.015,-4.18 4.628,-6.184 C -9.867,-39.109 -6.968,-18.79 0,0"
             style="fill:#fbb040;fill-opacity:1;fill-rule:nonzero;stroke:none"
             id="path935" />
        </g>
        <g
           id="g937"
           transform="translate(706.207,278.1953)">
          <path
             d="m 0,0 v 0.002 z m -126.961,762.138 c 0.921,0 1.831,-0.047 2.748,-0.068 14.567,-0.341 28.483,-3.335 41.281,-8.54 -1.218,-0.291 -2.429,-0.614 -3.627,-0.965 -5.215,-1.497 -10.279,-3.488 -15.202,-5.75 -9.841,-4.561 -19.214,-10.093 -28.103,-16.294 -17.811,-12.389 -33.811,-27.336 -47.653,-44.085 -6.851,-8.432 -13.212,-17.293 -18.695,-26.697 -5.439,-9.419 -10.248,-19.236 -13.913,-29.488 -6.039,-16.293 -9.018,-33.735 -8.597,-50.974 0.064,-2.643 0.202,-5.281 0.427,-7.909 -16.22,20.121 -25.96,45.679 -25.96,73.477 0,64.674 52.618,117.293 117.294,117.293 M 24.956,154.83 63.598,30.381 C 55.052,25.461 46.42,21.074 37.733,17.178 35.567,41.203 28.945,112.146 24.956,154.83 M -321.069,93.164 c -13.79,41.16 -15.467,76.879 -16.576,100.512 -0.209,4.418 -0.401,8.431 -0.646,12.052 l 13.069,-20.052 4.519,-6.778 2.336,-3.363 c 0.114,-0.174 0.388,-0.84 0.578,-1.394 0.196,-0.614 0.398,-1.215 0.573,-1.858 1.424,-5.099 2.535,-10.422 3.647,-15.697 3.792,-18.561 7.124,-37.246 10.351,-55.945 -5.811,-3.268 -11.756,-5.819 -17.785,-7.67 z m 137.613,148.826 19.678,5.283 2.652,59.231 c 1.319,-2.918 3.181,-5.471 5.122,-7.863 2.448,-2.942 5.113,-5.655 7.92,-8.184 4.307,-3.859 8.766,-7.455 13.454,-10.813 5.144,-11.146 14.245,-29.453 21.571,-36.611 h -0.002 c 2.409,-1.976 12.67,-29.773 14.397,-33.48 1.728,-3.711 17.49,-5.102 17.49,-2.783 0,1.921 -11.157,19.796 -11.256,32.185 5.379,0.311 9.608,1.363 10.328,3.049 1.112,2.594 12.399,22.951 19.299,32.201 6.66,2.129 12.595,5.529 18.072,9.51 5.863,4.387 11.418,9.35 15.365,15.928 0.116,0.216 0.217,0.431 0.326,0.646 l -7.244,-81.152 5.419,-2.553 c 0.974,-7.445 2.015,-15.402 3.102,-23.719 -0.518,-6.465 -1.466,-12.867 -2.822,-19.16 -1.427,-6.732 -3.308,-13.35 -5.758,-19.701 -2.456,-6.34 -5.312,-12.492 -8.889,-18.129 -3.57,-5.633 -7.766,-10.772 -12.555,-15.111 -4.807,-4.325 -10.295,-7.739 -16.23,-9.926 -11.89,-4.527 -25.276,-3.826 -38.025,-0.477 -6.509,1.797 -12.915,3.885 -19.004,6.602 -6.08,2.715 -11.858,5.984 -17.176,9.844 -5.33,3.843 -10.134,8.373 -14.206,13.525 -4.051,5.162 -7.45,10.873 -10.174,16.969 -5.374,12.244 -8.064,25.836 -9.471,39.615 -0.709,6.168 -1.105,12.404 -1.473,18.668 -0.168,10.484 -0.155,19.478 0.09,26.406 m 118.989,37.365 c 0,0 -74.064,9.047 -73.842,8.53 -2.456,1.783 -4.868,3.619 -7.189,5.547 -2.794,2.349 -5.537,4.765 -7.998,7.408 -2.44,2.635 -4.703,5.504 -6,8.666 -0.173,0.441 -0.317,0.888 -0.441,1.342 l 0.17,0.031 c -0.228,1.189 -0.424,2.404 -0.602,3.635 -0.004,0.029 -0.004,0.062 -0.006,0.09 l -0.243,3.279 0.053,1.103 -0.134,0.012 -0.084,1.184 c -0.293,3.712 -0.629,7.418 -0.995,11.12 -0.471,4.925 -1.002,9.844 -1.556,14.762 -0.148,2.088 -0.321,4.177 -0.452,6.267 -0.145,2.319 -0.276,4.638 -0.374,6.959 -0.073,2.32 -0.25,4.652 0,6.96 -0.366,-2.297 -0.307,-4.644 -0.347,-6.964 -0.019,-2.329 -0.002,-4.656 0.03,-6.982 0.051,-4.653 0.163,-9.304 0.307,-13.957 0.141,-4.651 0.32,-9.303 0.556,-13.958 0.097,-1.716 0.188,-3.42 0.291,-5.125 -3.295,0.427 -7.483,1.353 -8.612,2.473 -2.351,3.432 -7.806,45.644 -4.837,53.281 0.735,1.888 1.772,3.027 3.177,3.482 2.936,0.955 6.56,-1.343 6.596,-1.362 l 2.037,-1.311 0.108,2.418 c 0.144,3.391 0.31,7.028 0.485,10.786 v -3.772 l 3.24,3.989 c 0,0 0.215,53.034 6.704,62.306 6.49,9.271 23.74,22.253 26.937,19.471 3.198,-2.781 27.561,-8.345 28.824,-8.345 1.264,0 31.446,8.809 39.999,6.027 8.553,-2.781 29.877,-23.643 34.979,-31.062 4.532,-6.594 5.037,-54.929 5.091,-65.581 -0.214,-0.785 -0.349,-1.23 -0.361,-1.269 l -0.505,-1.587 18.291,-2.361 c 1.376,-5.86 8.431,-38.144 0.016,-49.368 -8.179,-10.907 -21.744,-6.96 -24.569,-5.985 0.59,3.213 0.999,6.428 1.317,9.639 0.707,7.137 1.01,14.268 1.105,21.396 0.101,7.122 -0.022,14.245 -0.385,21.351 -0.941,-14.186 -2.041,-28.371 -4.131,-42.312 -0.556,-3.474 -1.188,-6.931 -1.984,-10.304 -0.827,-3.315 -1.793,-6.764 -3.367,-9.319 -3.652,-5.48 -8.914,-10.181 -14.517,-14.088 -5.23,-3.57 -10.914,-6.679 -16.782,-8.502 M -244.351,164.65 c -0.079,7.75 -0.175,15.453 -0.038,23.094 0.211,5.608 0.303,11.277 1.288,16.494 0.24,1.299 0.533,2.533 0.888,3.662 0.417,1.166 0.701,1.721 1.549,3.053 1.446,2.348 3.008,4.697 4.592,7.049 6.341,9.418 12.662,19.271 17.388,29.947 2.625,5.863 4.744,12.016 6.139,18.291 -4.129,-37.234 -15.629,-72.492 -31.806,-101.59 m 329.148,69.239 c 0,0 -0.94,-18.543 -1.666,-41.868 0,0 -7.178,-42.847 -31.775,-84.695 L 10.127,240.105 c 11.49,13.528 38.313,32.899 63.657,32.879 4.692,-0.004 9.336,-0.669 13.822,-2.166 l 0.105,-0.037 c -2.194,-9.945 -3.236,-22.207 -2.914,-36.892 m -209.292,293.725 c -0.821,-0.018 -1.639,-0.062 -2.466,-0.062 -26.972,0 -51.828,9.174 -71.664,24.534 1.621,0.105 3.235,0.264 4.851,0.45 0.301,0.033 0.603,0.07 0.905,0.107 7.332,0.896 14.596,2.536 21.689,4.685 10.332,3.203 20.348,7.471 29.883,12.604 19.116,10.227 36.504,23.475 52.078,38.511 13.988,13.68 26.487,28.987 36.486,45.856 1.061,1.788 2.12,3.582 3.124,5.408 5.213,9.504 9.542,19.538 12.452,29.998 2.303,8.747 3.549,17.882 2.912,26.857 1.547,-1.998 3.016,-4.061 4.435,-6.155 0.355,-0.527 0.722,-1.041 1.072,-1.571 12.045,-18.414 19.068,-40.393 19.068,-63.991 0,-63.848 -51.287,-115.908 -114.825,-117.231 m 43.699,225.043 c 0.677,-0.29 1.346,-0.594 2.016,-0.897 17.308,-7.834 32.377,-19.752 43.997,-34.517 -0.184,-9.161 -2.059,-18.157 -4.973,-26.746 -3.446,-10.025 -8.199,-19.547 -13.609,-28.645 -5.482,-9.06 -11.574,-17.759 -18.278,-25.971 -6.657,-8.25 -13.809,-16.111 -21.456,-23.455 -7.574,-7.425 -15.606,-14.377 -24.005,-20.848 -8.359,-6.531 -17.183,-12.446 -26.31,-17.854 -9.157,-5.348 -18.707,-10.064 -28.651,-13.812 -7.341,-2.807 -14.922,-5.011 -22.672,-6.581 -1.459,-0.293 -2.914,-0.607 -4.387,-0.85 -6.849,5.358 -13.1,11.446 -18.61,18.174 0.023,2.303 0.107,4.601 0.229,6.896 0.93,17.648 4.745,34.961 11.434,51.15 2.109,5.108 4.427,10.126 6.936,15.047 2.306,4.52 4.776,8.959 7.439,13.282 5.478,9.08 11.719,17.703 18.481,25.882 6.692,8.244 13.964,16.022 21.631,23.382 7.636,7.408 15.787,14.274 24.255,20.724 8.512,6.385 17.396,12.316 26.776,17.363 3.373,1.865 6.839,3.549 10.379,5.062 1.355,0.579 2.72,1.14 4.097,1.666 1.619,0.618 3.262,1.192 4.927,1.706 0.12,-0.051 0.236,-0.107 0.354,-0.158 M -333.84,312.471 c 0,4.949 4.238,63.345 11.456,78.683 l 0.118,0.388 c 2.962,19.746 14.15,40.847 31.52,60.563 0,0 8.424,8.568 13.199,12.314 4.779,3.775 9.982,7.035 15.259,10.15 5.288,3.111 10.763,5.919 16.315,8.565 5.563,2.63 11.204,5.116 16.964,7.313 -5.862,-1.915 -11.627,-4.126 -17.331,-6.488 -5.695,-2.379 -11.332,-4.931 -16.819,-7.808 -2.364,-1.243 -4.714,-2.528 -7.038,-3.868 5.586,4.787 11.535,9.414 17.825,13.832 25.216,17.712 34.01,24.564 41.667,37.967 l 0.455,0.794 -0.288,0.381 13.694,14.15 -15.874,-11.257 -7.447,9.889 -18.499,19.867 -4.111,22.598 -6.842,30.791 3.037,5.637 c 12.677,-54.334 61.48,-94.943 119.619,-94.943 10.436,0 20.567,1.318 30.246,3.777 l 3.636,-5.222 4.208,-11.456 -10.367,-7.465 h -26.131 c -1.903,1.713 -8.961,7.665 -14.221,7.372 -1.575,-0.097 -2.868,-0.721 -3.843,-1.857 -0.03,-0.009 -0.051,-0.023 -0.081,-0.03 l -0.929,0.776 c -0.074,-0.032 -0.197,-0.044 -0.364,-0.046 -0.081,-0.002 -0.139,-0.014 -0.24,0 -0.751,0.073 -1.739,0.429 -2.688,0.871 -1.931,0.907 -3.859,2.173 -5.72,3.507 -3.73,2.702 -7.293,5.762 -10.705,8.974 2.721,-3.827 5.616,-7.542 8.862,-11.056 1.639,-1.749 3.341,-3.457 5.396,-4.991 0.306,-0.219 0.622,-0.437 0.943,-0.652 -6.454,-4.421 -8.923,-12.11 -11.948,-21.581 -1.418,-4.433 -3.024,-9.457 -5.235,-14.832 -4.583,-11.142 -9.094,-23.233 -13.476,-35.089 0.496,5.012 0.918,10.023 1.309,15.025 0.71,8.955 1.358,17.897 2.321,26.798 0.008,0.067 0.011,0.133 0.017,0.199 1.008,8.955 2.223,17.923 4.846,26.59 -3.198,-8.476 -5.025,-17.423 -6.632,-26.334 -1.575,-8.931 -2.827,-17.906 -4.139,-26.849 -1.309,-8.939 -2.667,-17.857 -4.451,-26.626 -1.802,-8.742 -3.986,-17.438 -7.449,-25.278 l 0.262,-0.107 c -4.695,-11.382 -8.9,-19.851 -12.218,-22.39 -18.621,-14.276 -27.53,-29.528 -22.166,-37.951 0.795,-1.254 3.926,-6.404 7.212,-14.778 -1.136,1.458 -2.339,2.869 -3.54,4.264 -2.438,2.814 -4.99,5.507 -7.503,8.23 -5.086,5.38 -10.182,10.722 -14.926,16.258 -2.332,2.796 -4.594,5.631 -6.575,8.566 -0.981,1.471 -1.865,2.977 -2.618,4.498 -0.359,0.764 -0.693,1.525 -0.956,2.287 -0.268,0.782 -0.43,1.424 -0.698,2.44 -1.958,7.431 -5.372,14.79 -10.984,20.579 -2.831,2.834 -6.157,5.236 -9.868,6.898 -3.743,1.613 -7.687,2.737 -12.22,2.263 -0.586,-0.087 -1.17,-0.184 -1.848,-0.42 -0.291,-0.088 -0.759,-0.285 -1.08,-0.48 -0.349,-0.194 -0.642,-0.406 -0.907,-0.617 -1.054,-0.857 -1.713,-1.736 -2.332,-2.59 -1.199,-1.717 -2.086,-3.422 -2.952,-5.115 -1.718,-3.376 -3.189,-6.755 -4.828,-9.934 -0.823,-1.577 -1.702,-3.118 -2.693,-4.389 -0.492,-0.63 -1.027,-1.177 -1.517,-1.52 -0.515,-0.328 -0.808,-0.412 -1.151,-0.366 -0.367,0.053 -0.914,0.37 -1.447,0.946 -0.552,0.525 -1.014,1.185 -1.448,1.872 -0.84,1.414 -1.446,3.048 -1.907,4.746 -0.931,3.414 -1.254,7.072 -1.385,10.725 -0.101,3.663 -0.003,7.363 0.328,11.056 -0.919,-3.599 -1.545,-7.279 -1.88,-11.012 -0.322,-3.73 -0.352,-7.521 0.25,-11.353 0.339,-1.911 0.871,-3.831 1.77,-5.689 0.471,-0.917 1.007,-1.833 1.727,-2.656 0.667,-0.814 1.609,-1.735 3.037,-2.179 1.461,-0.474 3.108,-0.035 4.145,0.617 1.076,0.65 1.861,1.428 2.565,2.207 1.38,1.57 2.426,3.21 3.421,4.851 1.976,3.273 3.613,6.618 5.348,9.785 0.872,1.57 1.772,3.119 2.741,4.4 0.479,0.627 1.002,1.203 1.405,1.488 0.098,0.072 0.186,0.127 0.247,0.15 0.077,0.037 0.04,0.023 0.192,0.064 0.195,0.065 0.53,0.118 0.862,0.151 2.865,0.277 6.335,-0.573 9.306,-1.954 3.034,-1.396 5.782,-3.424 8.149,-5.844 4.804,-4.825 7.943,-11.277 9.844,-18.072 0.231,-0.764 0.559,-1.908 0.933,-2.858 0.378,-0.976 0.822,-1.892 1.284,-2.788 0.952,-1.762 2.011,-3.411 3.14,-4.979 2.249,-3.135 4.752,-5.98 7.347,-8.695 5.172,-5.45 10.721,-10.404 16.256,-15.322 2.794,-2.429 5.571,-4.869 8.315,-7.339 1.376,-1.227 2.723,-2.483 4.045,-3.771 0.46,-0.443 0.906,-0.898 1.352,-1.353 3.766,-10.115 7.518,-24.373 8.015,-41.807 -2.932,-9.558 -6.973,-18.515 -11.774,-27.06 -5.465,-9.797 -11.978,-18.93 -18.367,-28.461 -1.578,-2.404 -3.167,-4.82 -4.677,-7.36 -0.684,-1.08 -1.701,-3.085 -2.13,-4.652 -0.453,-1.609 -0.786,-3.17 -0.957,-4.695 -0.706,-6.094 -0.616,-11.901 -0.166,-17.699 0.664,-8.862 1.944,-17.606 3.844,-26.223 -15.591,-27.006 -35.25,-48.363 -56.724,-60.543 -2.419,18.775 -4.941,37.535 -7.94,56.258 -0.89,5.361 -1.764,10.693 -3.019,16.082 -0.149,0.67 -0.348,1.361 -0.537,2.047 -0.245,0.722 -0.377,1.359 -0.949,2.357 l -2.151,3.4 -4.198,6.922 -18.489,32.024 c -7.298,32.752 1.203,69.398 4.865,85.16 1.023,4.398 1.474,6.385 1.474,7.387 m 13.792,-261.385 c -2.693,6.203 -2.48,20.072 -1.889,30.07 10.177,2.596 20.21,7.035 29.911,13.219 l 6.133,-62.656 c -20.882,9.431 -33.208,17.269 -34.155,19.367 m 39.998,-21.953 -6.732,68.779 c 16.475,11.705 31.848,28.379 45.089,49.252 4.381,6.906 8.448,14.158 12.205,21.68 L -244.145,15.391 c -13.541,4.572 -25.604,9.285 -35.905,13.742 m 46.768,-17.281 c -1.843,0.574 -3.653,1.156 -5.448,1.74 l 16.297,170.599 c 9.285,21.985 15.966,45.807 19.579,70.164 l 14.463,-2.582 c -4.122,-37.164 8.385,-224.378 10.392,-253.8 -21.125,4.023 -39.891,9.062 -55.283,13.879 m 60.932,-14.916 c -0.954,13.982 -8.633,158.011 -8.294,157.095 4.953,-13.886 14.252,-26.482 26.053,-35.615 5.886,-4.6 12.358,-8.316 19.02,-11.467 6.709,-3.058 13.664,-5.371 20.67,-7.338 7.18,-1.806 14.648,-3.008 22.258,-2.939 7.585,0.088 15.327,1.42 22.459,4.385 7.143,2.935 13.605,7.334 19.029,12.595 5.467,5.244 9.856,11.387 13.383,17.844 7.106,12.938 10.859,27.147 12.55,41.34 0.013,0.115 0.018,0.232 0.031,0.348 C -16.016,102.938 -4.966,18.035 -3.064,2.391 -63.404,-14.658 -123.684,-11.732 -172.35,-3.064 M 2.333,3.969 c -3.28,26.789 -27.997,220.765 -27.938,221.615 L 1.07,231.756 20.957,167.703 C 25.956,114.307 32.957,39.25 35.049,15.996 24.199,11.26 13.271,7.279 2.333,3.969 M 98.784,77.436 C 96.362,73.803 93.822,70.094 91.404,66.547 L 91.38,66.512 C 88.711,62.598 86.224,58.916 84.248,55.797 L 72.729,38.492 62.725,70.711 60.691,81.123 c 4.134,13.592 11.941,27.363 18.227,46.318 1.582,3.239 5.83,11.512 8.751,17.231 1.462,2.863 2.593,5.086 2.884,5.705 2.785,5.918 5.642,8.572 11.491,11.004 7.99,3.252 16.672,5.146 25.279,7.113 8.632,1.936 17.329,3.811 25.847,6.359 8.496,2.551 16.892,5.774 24.35,10.59 -7.667,-4.47 -16.127,-7.279 -24.669,-9.427 -8.564,-2.145 -17.277,-3.614 -26.004,-5.157 -8.715,-1.586 -17.515,-3.062 -26.112,-6.103 -4.076,-1.492 -8.167,-3.387 -11.715,-6.356 2.555,29.92 6.265,58.981 11.077,59.959 70.454,14.35 91.331,50.301 91.331,50.301 -31.298,-24.705 -61.956,-34.176 -88.382,-27.822 -15.727,3.781 -13.434,22.779 -6.443,39.24 3.525,8.307 8.242,15.967 12.452,20.697 18.531,22.567 42.483,43.215 57.45,50.024 6.016,-1.628 12.032,-3.225 18.071,-4.763 8.699,-2.209 17.422,-4.336 26.224,-6.214 3.554,-0.752 7.129,-1.438 10.739,-2.032 -2.932,-10.656 -6.197,-21.298 -9.903,-31.745 -1.948,-5.441 -4.021,-10.844 -6.404,-16.105 -1.201,-2.624 -2.47,-5.221 -3.917,-7.717 -1.461,-2.477 -3.053,-4.932 -5.253,-6.84 2.35,1.728 4.169,4.088 5.839,6.467 1.661,2.402 3.152,4.916 4.572,7.465 2.827,5.107 5.346,10.375 7.743,15.691 4.496,10.049 13.569,21.31 17.763,31.775 0.333,0.022 0.677,0.063 1.053,0.139 0.639,0.141 1.126,0.284 1.692,0.434 l 3.259,0.928 c 4.32,1.291 8.585,2.728 12.771,4.386 2.088,0.835 4.159,1.725 6.164,2.757 1,0.517 1.988,1.068 2.918,1.709 0.891,0.656 1.887,1.353 2.291,2.425 -0.499,-1.019 -1.527,-1.594 -2.459,-2.155 -0.967,-0.541 -1.984,-0.987 -3.015,-1.403 -2.061,-0.825 -4.179,-1.507 -6.314,-2.133 -4.272,-1.24 -8.61,-2.26 -12.964,-3.124 l -3.268,-0.603 c -0.526,-0.089 -1.129,-0.196 -1.591,-0.255 -0.37,-0.046 -0.88,-0.033 -1.376,0 -2.039,0.161 -4.214,0.604 -6.346,1.083 -4.286,0.982 -8.563,2.194 -12.823,3.454 -8.522,2.543 -16.989,5.341 -25.431,8.216 -4.896,1.674 -9.784,3.389 -14.663,5.122 -8.104,5.844 -19.042,19.781 -31.467,35.617 -15.808,20.152 -33.727,42.994 -53.549,59.93 -36.448,31.146 -84.288,69.041 -105.355,72.846 0.215,0.111 0.432,0.221 0.645,0.33 1.416,0.738 2.789,1.554 4.144,2.402 2.713,1.688 5.348,3.508 7.903,5.45 2.206,1.688 4.38,3.436 6.454,5.357 17.244,-13.762 34.443,-27.592 51.534,-41.549 3.034,-2.473 6.031,-4.993 9.055,-7.48 5.905,-4.856 11.822,-9.698 17.679,-14.607 4.434,-3.707 8.824,-7.464 13.202,-11.238 4.284,-3.868 8.784,-7.535 12.611,-11.873 -0.641,0.787 -1.328,1.535 -2.006,2.29 -3.195,3.541 -6.73,6.764 -10.139,10.097 -4.225,3.952 -8.468,7.884 -12.752,11.772 -8.563,7.78 -17.186,15.493 -25.85,23.159 -16.422,14.546 -32.951,28.966 -49.538,43.328 0.198,0.232 0.406,0.444 0.598,0.687 1.099,1.31 2.113,2.84 2.914,4.781 l -2.671,0.778 -2.67,0.78 c -0.275,-1.034 -0.778,-2.304 -1.555,-3.541 -0.543,-0.939 -1.195,-1.862 -1.871,-2.777 -0.223,-0.303 -0.441,-0.61 -0.668,-0.91 -1.855,-2.428 -3.983,-4.723 -6.163,-6.962 -2.185,-2.238 -4.487,-4.385 -6.885,-6.419 -1.199,-1.019 -2.422,-2.012 -3.694,-2.934 -1.279,-0.897 -2.544,-1.902 -4.078,-2.306 l 0.592,0.542 c -27.274,-9.091 -46.75,-13.582 -51.041,-11.746 -4.288,1.836 -9.069,5.24 -11.657,7.202 5.498,2.134 19.132,7.697 24.106,12.286 2.792,2.579 7.995,10.082 14.019,18.768 0.282,0.411 0.569,0.825 0.855,1.236 4.636,4.122 8.97,8.579 12.938,13.355 l 0.034,-0.037 c 0.973,1.202 2.267,2.453 3.608,3.582 0.284,0.241 0.57,0.483 0.856,0.708 1.672,1.309 3.481,2.453 5.415,3.377 1.934,0.925 4.015,1.516 6.174,1.825 2.173,0.33 4.391,0.085 6.617,-0.355 -2.066,0.875 -4.297,1.616 -6.645,1.746 -2.326,0.153 -4.73,-0.013 -7.044,-0.585 -0.549,-0.133 -1.092,-0.284 -1.634,-0.448 13.25,19.607 20.997,43.225 20.997,68.62 0,18.668 -4.206,36.366 -11.685,52.227 7.765,-10.544 17.401,-23.842 18.677,-26.389 1.457,-2.912 7.789,-44.595 11.703,-71.976 0.986,-4.935 17.046,-17.494 37.938,-33.398 7.025,-5.35 13.093,-9.964 16.052,-12.574 7.137,-6.285 108.725,-78.748 135.842,-94.048 26.566,-14.985 82.241,-71.393 84.232,-88.655 1.625,-14.075 -19.95,-50.321 -32.837,-71.975 -3.102,-5.215 -5.781,-9.719 -7.428,-12.735 C 226.215,244.666 156.861,149.08 134.596,135.162 124.287,128.721 117.197,112.865 108.984,94.504 107.03,90.135 103.116,83.93 98.784,77.436 m -199.739,687.469 c -8.387,1.815 -17.084,2.796 -26.006,2.796 -16.555,0 -32.347,-3.313 -46.772,-9.275 -183.947,-33.687 -323.359,-194.791 -323.359,-388.467 0,-218.129 176.83,-394.961 394.961,-394.961 218.13,0 394.961,176.834 394.961,394.961 0,217.738 -176.196,394.309 -393.785,394.946"
             style="fill:#000000;fill-opacity:1;fill-rule:nonzero;stroke:none"
             id="path939" />
        </g>
        <g
           id="g941"
           transform="translate(561.6572,786.1694)">
          <path
             d="m 0,0 0.108,-0.09 c 0.03,0.012 0.084,0.025 0.099,0.035 C 0.244,0.02 0.036,0.029 0,0"
             style="fill:#000000;fill-opacity:1;fill-rule:nonzero;stroke:none"
             id="path943" />
        </g>
        <g
           id="g945"
           transform="translate(600.1143,703.3237)">
          <path
             d="m 0,0 c -4.866,4.52 -27.468,0.695 -34.77,0 -7.302,-0.694 -7.998,-11.126 -7.998,-11.126 0,0 9.388,10.979 12.575,6.649 3.187,-4.332 -2.376,-6.649 -2.376,-6.649 0,0 -12.516,-6.49 -10.199,-11.592 2.318,-5.097 6.492,-5.097 6.492,-5.097 0,0 18.72,-0.134 32.916,2.78 C 1.663,-24.004 0,0 0,0"
             style="fill:#000000;fill-opacity:1;fill-rule:nonzero;stroke:none"
             id="path947" />
        </g>
        <g
           id="g949"
           transform="translate(664.9932,694.979)">
          <path
             d="M 0,0 C -0.039,-0.051 -0.116,-0.075 -0.168,-0.118 -0.074,-0.141 -0.007,-0.121 0,0"
             style="fill:#000000;fill-opacity:1;fill-rule:nonzero;stroke:none"
             id="path951" />
        </g>
        <g
           id="g953"
           transform="translate(662.1797,673.769)">
          <path
             d="m 0,0 c 1.854,1.857 3.188,10.403 2.724,13.488 -0.464,3.085 -17.106,8.185 -17.361,10.038 -0.252,1.817 14.906,-4.455 17.283,-2.434 -0.979,0.233 -6.431,7.675 -11.513,8.23 -5.563,0.611 -27.816,6.029 -32.916,-7.417 0,0 0.464,-14.604 1.855,-16.922 C -38.538,2.667 -1.854,-1.855 0,0"
             style="fill:#000000;fill-opacity:1;fill-rule:nonzero;stroke:none"
             id="path955" />
        </g>
        <g
           id="g957"
           transform="translate(587.9434,650.0093)">
          <path
             d="m 0,0 5.102,-5.563 h 4.636 c 0,0 17.152,-2.782 21.299,-2.318 4.147,0.462 6.053,2.318 6.053,6.027 0,3.708 -3.245,5.099 -6.027,5.563 -2.782,0.462 -4.637,0 -4.637,0 0,0 -5.099,-2.317 -6.826,-2.78 C 17.873,0.464 12.436,6.49 12.436,6.49 L 5.332,5.448 Z"
             style="fill:#000000;fill-opacity:1;fill-rule:nonzero;stroke:none"
             id="path959" />
        </g>
        <g
           id="g961"
           transform="translate(622.7158,624.7427)">
          <path
             d="m 0,0 c 0,0 -24.343,1.393 -29.209,-0.001 -4.866,-1.39 -14.786,-11.474 -14.786,-11.474 l 5.747,-0.696 5.215,4.05 29.298,-2.311 9.993,-2.781 c 0,0 7.997,-1.043 8.345,0 C 14.95,-12.171 0,0 0,0"
             style="fill:#000000;fill-opacity:1;fill-rule:nonzero;stroke:none"
             id="path963" />
        </g>
        <g
           id="g965"
           transform="translate(621.3242,602.4897)">
          <path
             d="m 0,0 c -3.477,0 -34.073,-0.696 -36.856,0 l 3.477,-2.087 3.475,-5.563 H 2.087 C 2.087,-7.65 3.477,0 0,0"
             style="fill:#000000;fill-opacity:1;fill-rule:nonzero;stroke:none"
             id="path967" />
        </g>
        <g
           id="g969"
           transform="translate(718.7539,862.1333)">
          <path
             d="M 0,0 C 0.327,2.043 0.527,4.111 0.393,6.235 V 6.233 c -1.941,-3.751 -3.206,-7.587 -4.476,-11.415 -1.229,-3.863 -2.305,-7.631 -3.523,-11.646 1.604,1.407 2.775,3.21 3.765,5.044 0.152,0.277 0.261,0.57 0.402,0.85 L 39.798,-44.531 -1.311,-5.586 C -0.746,-3.753 -0.289,-1.894 0,0"
             style="fill:#000000;fill-opacity:1;fill-rule:nonzero;stroke:none"
             id="path971" />
        </g>
        <g
           id="g973"
           transform="translate(687.3887,611.0649)">
          <path
             d="m 0,0 c 0,0 10.778,-7.533 10.431,-8.575 -0.348,-1.044 -3.824,-3.066 -2.782,-4.664 1.04,-1.595 7.65,0.491 7.65,4.664 0,4.172 7.997,7.054 0,14.132 -7.997,7.078 -9.041,11.944 -9.041,13.683 0,1.739 2.989,4.868 2.989,4.868 0,0 5.008,-4.199 5.357,-2.968 0.347,1.229 -0.349,8.184 -0.349,8.184 0,0 -11.821,0 -12.169,-3.129 -0.348,-3.129 0.348,-6.955 0.348,-6.955 0,0 4.173,-7.842 0,-12.092 C -1.739,2.897 0,0 0,0"
             style="fill:#000000;fill-opacity:1;fill-rule:nonzero;stroke:none"
             id="path975" />
        </g>
        <g
           id="g977"
           transform="translate(534.0576,625.1392)">
          <path
             d="m 0,0 c 0,0 3.122,13.511 3.471,15.25 0.345,1.739 -6.956,7.766 -6.956,7.766 0,0 -0.346,-3.942 -0.068,-6.08 0.281,-2.137 2.501,-6.902 2.501,-6.902 0,0 -1.735,-10.432 -2.433,-13.213 -0.694,-2.781 4.172,-8.692 4.599,-10.895 0.424,-2.201 4.442,-4.751 4.442,-3.709 0,1.044 0.347,5.565 0,7.302 C 5.208,-8.741 0,0 0,0"
             style="fill:#000000;fill-opacity:1;fill-rule:nonzero;stroke:none"
             id="path979" />
        </g>
        <g
           id="g981"
           transform="translate(592.9443,346.4336)">
          <path
             d="M 0,0 0.09,-0.041 Z"
             style="fill:#000000;fill-opacity:1;fill-rule:nonzero;stroke:none"
             id="path983" />
        </g>
      </g>
    </g>
  </g>
</svg>
